{
  "accessors": [
    {
      "bufferView": 1,
      "componentType": 5126,
      "count": 42759,
      "max": [
        2.1509199142456055,
        1.0087300539016724,
        0.7371699810028076
      ],
      "min": [
        -0.434689998626709,
        -1.0027799606323242,
        -1.0870699882507324
      ],
      "type": "VEC3"
    },
    {
      "bufferView": 1,
      "byteOffset": 513108,
      "componentType": 5126,
      "count": 42759,
      "max": [
        1.0,
        1.0,
        1.0
      ],
      "min": [
        -1.0,
        -1.0,
        -1.0
      ],
      "type": "VEC3"
    },
    {
      "bufferView": 0,
      "componentType": 5125,
      "count": 249957,
      "type": "SCALAR"
    }
  ],
  "asset": {
    "extras": {
      "author": "hitheredearjohn (https://sketchfab.com/hitheredearjohn)",
      "license": "CC-BY-4.0 (http://creativecommons.org/licenses/by/4.0/)",
      "source": "https://sketchfab.com/3d-models/cup-554c406025f34b9992225550e350e29b",
      "title": "Cup"
    },
    "generator": "Sketchfab-12.68.0",
    "version": "2.0"
  },
  "bufferViews": [
    {
      "buffer": 0,
      "byteLength": 999828,
      "name": "floatBufferViews",
      "target": 34963
    },
    {
      "buffer": 0,
      "byteLength": 1026216,
      "byteOffset": 999828,
      "byteStride": 12,
      "name": "floatBufferViews",
      "target": 34962
    }
  ],
  "buffers": [
    {
      "byteLength": 2026044,
      "uri": "scene.bin"
    }
  ],
  "extensionsRequired": [
    "KHR_materials_pbrSpecularGlossiness"
  ],
  "extensionsUsed": [
    "KHR_materials_pbrSpecularGlossiness"
  ],
  "materials": [
    {
      "doubleSided": true,
      "extensions": {
        "KHR_materials_pbrSpecularGlossiness": {
          "diffuseFactor": [
            1.0,
            1.0,
            1.0,
            1.0
          ],
          "glossinessFactor": 0.8885289634146342,
          "specularFactor": [
            0.03830030487804878,
            0.03830030487804878,
            0.03830030487804878
          ]
        }
      },
      "name": "Ceramic_main"
    }
  ],
  "meshes": [
    {
      "name": "Handle.000_0",
      "primitives": [
        {
          "attributes": {
            "NORMAL": 1,
            "POSITION": 0
          },
          "indices": 2,
          "material": 0,
          "mode": 4
        }
      ]
    }
  ],
  "nodes": [
    {
      "children": [
        1
      ],
      "matrix": [
        1.0,
        0.0,
        0.0,
        0.0,
        0.0,
        2.220446049250313e-16,
        -1.0,
        0.0,
        0.0,
        1.0,
        2.220446049250313e-16,
        0.0,
        0.0,
        0.0,
        0.0,
        1.0
      ],
      "name": "Sketchfab_model"
    },
    {
      "children": [
        2
      ],
      "name": "Root"
    },
    {
      "children": [
        3
      ],
      "matrix": [
        1.0,
        0.0,
        0.0,
        0.0,
        0.0,
        1.0,
        0.0,
        0.0,
        0.0,
        0.0,
        1.0,
        0.0,
        -1.14292,
        -0.002980000000000001,
        1.08707,
        1.0
      ],
      "name": "Handle.000"
    },
    {
      "mesh": 0,
      "name": "Handle.000_0"
    }
  ],
  "scene": 0,
  "scenes": [
    {
      "name": "Sketchfab_Scene",
      "nodes": [
        0
      ]
    }
  ]
}
